<svg width="26" height="28" viewBox="0 0 26 28" fill="none" xmlns="http://www.w3.org/2000/svg">
    <path d="M0.819363 0.943807C1.39061 0.331307 2.22561 -0.0161927 3.06249 5.72832e-05C7.70811 0.000682283 12.3531 -0.00119269 16.9987 0.00130731C18.1162 -0.00244269 19.2287 0.382557 20.1019 1.08006C20.8144 1.63943 21.3562 2.40068 21.6856 3.24193C23.1387 3.65756 24.4062 4.65943 25.1725 5.95943C25.7462 6.92943 26.0337 8.06506 25.9962 9.19131C25.9562 10.5657 25.4212 11.9188 24.5119 12.9494C23.8406 13.7188 22.97 14.3144 22.0056 14.6526C21.9912 17.4551 22.0056 20.2576 21.9987 23.0607C21.9887 24.1263 21.6244 25.1851 20.975 26.0307C20.065 27.2394 18.5812 27.9894 17.0669 27.9988C12.3994 28.0019 7.73124 27.9994 3.06374 28.0001C2.21249 28.0169 1.36311 27.6576 0.791238 27.0263C0.270613 26.4663 -0.0137619 25.7013 -1.18907e-05 24.9376C-1.18907e-05 17.6451 -1.18907e-05 10.3526 -1.18907e-05 3.06006C-0.0137619 2.28381 0.281238 1.50568 0.819363 0.943807ZM2.00124 2.99631C1.99811 8.66443 2.00061 14.3319 1.99999 20.0001C7.99999 20.0001 14 20.0001 20 20.0001C20 18.3338 20 16.6676 20 15.0013C18.3981 15.0038 16.8094 14.3357 15.6987 13.1807C14.6469 12.1094 14.025 10.6288 14.0025 9.12631C13.9644 7.67506 14.4819 6.21881 15.4269 5.11631C16.3894 3.97568 17.79 3.21881 19.2725 3.04256C18.8744 2.58506 18.34 2.24693 17.7512 2.09756C17.2825 1.96943 16.7925 2.00506 16.3125 2.00006C11.8744 2.00068 7.43624 1.99881 2.99811 2.00131C2.46561 1.98631 1.98686 2.46381 2.00124 2.99631ZM19.405 5.04443C18.5656 5.16818 17.7687 5.56818 17.1737 6.17381C16.44 6.89256 16.0125 7.90818 16.0012 8.93443C15.9806 9.93006 16.35 10.9301 17.0225 11.6657C17.6694 12.3894 18.5869 12.8701 19.5537 12.9744C20.4169 13.0713 21.3131 12.8826 22.0556 12.4294C22.9069 11.9201 23.5581 11.0832 23.8369 10.1301C24.1094 9.20693 24.0381 8.18318 23.6244 7.31256C23.2437 6.49506 22.5806 5.81131 21.7712 5.41318C21.045 5.05068 20.2069 4.92506 19.405 5.04443ZM1.99999 22.0001C1.99936 22.8757 2.00061 23.7507 1.99999 24.6263C2.00311 24.8451 1.98124 25.0694 2.04061 25.2826C2.16436 25.7188 2.60999 26.0294 3.06186 26.0007C7.72811 25.9976 12.3944 26.0044 17.0606 25.9969C18.2612 25.9894 19.4 25.1794 19.8081 24.0513C20.0687 23.3988 19.9869 22.6857 20 22.0001C14 22.0001 7.99999 22.0001 1.99999 22.0001Z" fill="#78909C"/>
    <path d="M21.2949 7.2925C21.5099 7.0725 21.8299 6.96812 22.1343 7.01187C22.5912 7.06125 22.9768 7.47125 22.9943 7.93125C23.018 8.21625 22.9093 8.50562 22.7062 8.70687C21.7187 9.69812 20.7287 10.6862 19.7393 11.6756C19.5618 11.8581 19.3218 11.9831 19.0649 11.9962C18.6762 12.0275 18.2849 11.8037 18.1112 11.455C17.7755 10.79 17.4437 10.1225 17.1105 9.45625C16.9255 9.10875 16.9793 8.66125 17.2305 8.36062C17.5349 7.97937 18.1218 7.88937 18.5305 8.15375C18.9355 8.4125 19.0399 8.92 19.273 9.31125C19.9487 8.64 20.6199 7.96375 21.2949 7.2925Z" fill="#FF8500"/>
    <path d="M5.82366 11.0157C7.19304 10.9789 8.56491 11.0107 9.93554 10.9995C10.3237 10.9751 10.7105 11.1945 10.8862 11.542C11.0893 11.9139 11.0112 12.412 10.7049 12.7051C10.5074 12.9095 10.2218 13.0114 9.93991 13.0007C8.62554 12.9989 7.31116 13.002 5.99679 12.9989C5.57679 13.0039 5.17741 12.7089 5.04991 12.3107C4.84929 11.7595 5.24429 11.1007 5.82366 11.0157Z" fill="#78909C"/>
    <path d="M5.82177 15.0163C5.98552 14.9926 6.15177 15.0001 6.31677 14.9994C9.54677 15.0019 12.7774 14.9976 16.008 15.0013C16.5143 14.9913 16.9718 15.4288 16.9968 15.9319C17.0324 16.3388 16.783 16.7413 16.4149 16.9088C16.1686 17.0282 15.8874 16.9963 15.623 17.0001C12.5418 17.0001 9.4599 17.0001 6.37865 17.0001C6.18865 16.9988 5.99677 17.0107 5.80802 16.9807C5.35552 16.8957 4.99052 16.4669 5.00052 16.0019C4.98865 15.5313 5.3574 15.0901 5.82177 15.0163Z" fill="#78909C"/>
</svg>
